<svg width="19" height="20" viewBox="0 0 19 20" fill="none" xmlns="http://www.w3.org/2000/svg">
<path fill-rule="evenodd" clip-rule="evenodd" d="M0 10C0 4.48 4.20963 0 9.40811 0C14.616 0 18.8351 4.48 18.8351 10C18.8351 15.52 14.616 20 9.40811 20C4.20963 20 0 15.52 0 10ZM13.1563 6H15.9345C15.0304 4.35 13.5895 3.07 11.8567 2.44C12.4217 3.55 12.8549 4.75 13.1563 6ZM9.41753 2.04001C10.1992 3.24001 10.8113 4.57001 11.2163 6.00001H7.61878C8.02373 4.57001 8.63587 3.24001 9.41753 2.04001ZM1.88351 10C1.88351 10.69 1.97768 11.36 2.12836 12H5.31149C5.23615 11.34 5.17964 10.68 5.17964 10C5.17964 9.32 5.23615 8.66 5.31149 8H2.12836C1.97768 8.64 1.88351 9.31 1.88351 10ZM2.9006 14H5.67877C5.98013 15.25 6.41334 16.45 6.97839 17.56C5.24557 16.93 3.80468 15.66 2.9006 14ZM2.9006 6H5.67877C5.98013 4.75 6.41334 3.55 6.97839 2.44C5.24557 3.07 3.80468 4.34 2.9006 6ZM9.41753 17.96C8.63587 16.76 8.02373 15.43 7.61878 14H11.2163C10.8113 15.43 10.1992 16.76 9.41753 17.96ZM7.21383 12H11.6212C11.706 11.34 11.7719 10.68 11.7719 10C11.7719 9.32 11.706 8.65 11.6212 8H7.21383C7.12907 8.65 7.06315 9.32 7.06315 10C7.06315 10.68 7.12907 11.34 7.21383 12ZM11.8567 17.56C12.4217 16.45 12.8549 15.25 13.1563 14H15.9345C15.0304 15.65 13.5895 16.93 11.8567 17.56ZM13.6554 10C13.6554 10.68 13.5989 11.34 13.5236 12H16.7067C16.8574 11.36 16.9515 10.69 16.9515 10C16.9515 9.31 16.8574 8.64 16.7067 8H13.5236C13.5989 8.66 13.6554 9.32 13.6554 10Z" fill="#808080"/>
</svg>
