<svg width="22" height="22" viewBox="0 0 22 22" fill="none" xmlns="http://www.w3.org/2000/svg">
<path d="M17.6315 6.875C15.7368 6.875 14.194 5.33316 14.194 3.4375C14.194 1.54184 15.7368 0 17.6315 0C19.5263 0 21.069 1.54184 21.069 3.4375C21.069 5.33316 19.5263 6.875 17.6315 6.875ZM17.6315 1.375C16.4948 1.375 15.569 2.29984 15.569 3.4375C15.569 4.57516 16.4948 5.5 17.6315 5.5C18.7681 5.5 19.694 4.57516 19.694 3.4375C19.694 2.29984 18.7681 1.375 17.6315 1.375Z" fill="white"/>
<path d="M17.6315 22C15.7368 22 14.194 20.4582 14.194 18.5625C14.194 16.6668 15.7368 15.125 17.6315 15.125C19.5263 15.125 21.069 16.6668 21.069 18.5625C21.069 20.4582 19.5263 22 17.6315 22ZM17.6315 16.5C16.4948 16.5 15.569 17.4248 15.569 18.5625C15.569 19.7002 16.4948 20.625 17.6315 20.625C18.7681 20.625 19.694 19.7002 19.694 18.5625C19.694 17.4248 18.7681 16.5 17.6315 16.5Z" fill="white"/>
<path d="M4.33984 14.4375C2.44502 14.4375 0.902344 12.8957 0.902344 11C0.902344 9.10434 2.44502 7.5625 4.33984 7.5625C6.23466 7.5625 7.77734 9.10434 7.77734 11C7.77734 12.8957 6.23466 14.4375 4.33984 14.4375ZM4.33984 8.9375C3.20319 8.9375 2.27734 9.86234 2.27734 11C2.27734 12.1377 3.20319 13.0625 4.33984 13.0625C5.4765 13.0625 6.40234 12.1377 6.40234 11C6.40234 9.86234 5.4765 8.9375 4.33984 8.9375Z" fill="white"/>
<path d="M6.73326 10.3308C6.49391 10.3308 6.26111 10.2061 6.13556 9.98438C5.94757 9.65439 6.06221 9.23444 6.39219 9.04662L14.898 4.19736C15.227 4.00769 15.6478 4.12317 15.8347 4.45416C16.0227 4.78415 15.9081 5.20394 15.5781 5.39192L7.07231 10.241C6.96505 10.3014 6.84874 10.3308 6.73326 10.3308V10.3308Z" fill="white"/>
<path d="M15.2381 17.8933C15.1226 17.8933 15.0061 17.8639 14.8989 17.8027L6.3931 12.9534C6.06311 12.7656 5.94864 12.3456 6.13646 12.0156C6.32344 11.6848 6.74339 11.5702 7.07338 11.759L15.579 16.6081C15.909 16.7961 16.0236 17.2159 15.8358 17.5458C15.7093 17.7686 15.4765 17.8933 15.2381 17.8933Z" fill="white"/>
</svg>
