<svg width="31" height="31" viewBox="0 0 31 31" fill="none" xmlns="http://www.w3.org/2000/svg">
<rect x="0.03125" y="0.510406" width="30.2083" height="30.2083" rx="7" fill="#03CBF7"/>
<rect x="6.07294" y="7.30728" width="18.125" height="18.125" fill="white" fill-opacity="0.01"/>
<path fill-rule="evenodd" clip-rule="evenodd" d="M23.091 10.8368L22.0226 10.712C21.6269 10.6658 21.2531 10.6064 20.901 10.5341C20.2579 9.91656 19.4394 9.57408 18.5371 9.57408C16.6017 9.57408 15.1465 11.0313 15.1386 12.9568C13.2957 12.8037 11.4907 11.5377 9.66483 9.45094L9.11076 8.81772L8.54087 9.43674C8.24176 9.76164 8.01951 10.1162 7.86575 10.4993C7.62584 11.0969 7.57877 11.5652 7.58368 12.4416C7.58412 12.5208 7.58412 12.5208 7.58427 12.5949C7.58427 14.3336 8.23887 15.5871 9.54579 16.3685C9.41203 16.3933 9.26241 16.4067 9.09648 16.4067H8.34127V17.1619C8.34127 18.5983 9.31713 19.3631 11.0585 19.6431C10.4242 19.8861 9.59824 20.0676 8.64561 20.1552L7.59257 20.2521L8.02588 21.2167C8.44675 22.1537 9.3665 22.6898 10.6024 22.9595C11.3534 23.1234 12.0092 23.1647 12.8725 23.1647C17.0911 23.1647 21.5581 20.2316 21.5581 15.6157V13.8119C21.5726 13.7861 21.5928 13.7538 21.62 13.7129C21.6209 13.7116 21.6251 13.7054 21.6316 13.6959C21.6604 13.6537 21.7337 13.5462 21.7583 13.5075C21.8307 13.394 21.8796 13.3068 21.9074 13.2074C22.1421 12.738 22.3765 12.2687 22.6107 11.7993L23.091 10.8368ZM20.1214 11.9085L20.3529 11.9609C20.4976 11.9937 20.6453 12.0243 20.7959 12.0529L20.505 12.6348L20.4452 12.7545C20.4324 12.7733 20.4182 12.7941 20.4052 12.8133C20.3863 12.8412 20.3697 12.8655 20.3634 12.875C20.3066 12.9601 20.2606 13.0347 20.2188 13.113C20.112 13.3133 20.0477 13.5059 20.0477 13.7277V15.6157C20.0477 19.2311 16.3573 21.6543 12.8725 21.6543C11.9346 21.6543 11.1191 21.5734 10.5066 21.3858C12.3847 20.9434 13.6279 20.0962 13.6279 19.0142V18.259H12.8727C11.4644 18.259 10.5938 18.0847 10.1682 17.7618C11.0967 17.4793 11.7314 16.8488 11.7314 16.1789V15.6265L11.2049 15.4592C9.72129 14.9876 9.09468 14.1416 9.09468 12.5949C9.09452 12.5136 9.09452 12.5136 9.09407 12.4331C9.0907 11.8314 9.11485 11.5105 9.21753 11.1983C11.2094 13.27 13.252 14.4829 15.5161 14.4829C16.1999 14.4829 16.5325 14.0069 16.6219 13.414C16.6443 13.2655 16.649 13.1524 16.649 12.9725C16.649 11.8717 17.4323 11.0845 18.5371 11.0845C19.0896 11.0845 19.5749 11.3088 19.9615 11.733L20.1214 11.9085Z" fill="white"/>
</svg>
