<svg width="32" height="32" viewBox="0 0 32 32" fill="none" xmlns="http://www.w3.org/2000/svg">
<circle cx="16" cy="16" r="16" fill="#0961B1"/>
<path fill-rule="evenodd" clip-rule="evenodd" d="M7 16C7 10.48 11.2096 6 16.4081 6C21.616 6 25.8351 10.48 25.8351 16C25.8351 21.52 21.616 26 16.4081 26C11.2096 26 7 21.52 7 16ZM20.1563 12H22.9345C22.0304 10.35 20.5895 9.07 18.8567 8.44C19.4217 9.55 19.8549 10.75 20.1563 12ZM16.4175 8.04001C17.1992 9.24001 17.8113 10.57 18.2163 12H14.6188C15.0237 10.57 15.6359 9.24001 16.4175 8.04001ZM8.88351 16C8.88351 16.69 8.97768 17.36 9.12836 18H12.3115C12.2361 17.34 12.1796 16.68 12.1796 16C12.1796 15.32 12.2361 14.66 12.3115 14H9.12836C8.97768 14.64 8.88351 15.31 8.88351 16ZM9.9006 20H12.6788C12.9801 21.25 13.4133 22.45 13.9784 23.56C12.2456 22.93 10.8047 21.66 9.9006 20ZM9.9006 12H12.6788C12.9801 10.75 13.4133 9.55 13.9784 8.44C12.2456 9.07 10.8047 10.34 9.9006 12ZM16.4175 23.96C15.6359 22.76 15.0237 21.43 14.6188 20H18.2163C17.8113 21.43 17.1992 22.76 16.4175 23.96ZM14.2138 18H18.6212C18.706 17.34 18.7719 16.68 18.7719 16C18.7719 15.32 18.706 14.65 18.6212 14H14.2138C14.1291 14.65 14.0631 15.32 14.0631 16C14.0631 16.68 14.1291 17.34 14.2138 18ZM18.8567 23.56C19.4217 22.45 19.8549 21.25 20.1563 20H22.9345C22.0304 21.65 20.5895 22.93 18.8567 23.56ZM20.6554 16C20.6554 16.68 20.5989 17.34 20.5236 18H23.7067C23.8574 17.36 23.9515 16.69 23.9515 16C23.9515 15.31 23.8574 14.64 23.7067 14H20.5236C20.5989 14.66 20.6554 15.32 20.6554 16Z" fill="white"/>
</svg>
