<svg width="31" height="31" viewBox="0 0 31 31" fill="none" xmlns="http://www.w3.org/2000/svg">
<rect x="0.760437" y="0.510406" width="30.2083" height="30.2083" rx="7" fill="#177507"/>
<path fill-rule="evenodd" clip-rule="evenodd" d="M9.44565 14.4818C9.44565 13.2122 9.82213 11.9711 10.5275 10.9154C11.2328 9.85978 12.2354 9.03701 13.4084 8.55115C14.5813 8.06529 15.872 7.93817 17.1173 8.18585C18.3625 8.43354 19.5063 9.04492 20.404 9.94267C21.3018 10.8404 21.9132 11.9842 22.1608 13.2294C22.4085 14.4747 22.2814 15.7654 21.7956 16.9383C21.3097 18.1113 20.4869 19.1139 19.4313 19.8192C18.3756 20.5246 17.1345 20.9011 15.8649 20.9011C14.6504 20.9032 13.4605 20.559 12.4348 19.9087C12.3435 19.851 12.241 19.8135 12.134 19.7988C12.027 19.7841 11.9182 19.7924 11.8147 19.8234L9.63974 20.4721L10.4591 18.5561C10.5068 18.4446 10.5268 18.3232 10.5176 18.2023C10.5084 18.0813 10.4702 17.9644 10.4063 17.8613C9.77638 16.8468 9.44357 15.676 9.44565 14.4818ZM15.8649 6.55209C11.4855 6.55209 7.93523 10.1023 7.93523 14.4818C7.93523 15.8699 8.29244 17.1764 8.92078 18.313L7.61804 21.3595C7.56166 21.4914 7.54404 21.6367 7.56726 21.7784C7.59048 21.92 7.65356 22.052 7.74913 22.1591C7.8447 22.2662 7.96879 22.3438 8.10688 22.3829C8.24497 22.4219 8.39133 22.4209 8.52882 22.3797L11.9273 21.3663C13.1258 22.0531 14.4835 22.4135 15.8649 22.4115C20.2444 22.4115 23.7946 18.8612 23.7946 14.4818C23.7946 10.1023 20.2444 6.55209 15.8649 6.55209ZM17.5966 16.1296L16.6035 16.829C16.0563 16.5142 15.5539 16.1273 15.1097 15.6788C14.6328 15.2025 14.2205 14.6658 13.8833 14.0823L14.5139 13.5468C14.6452 13.4354 14.7346 13.2823 14.767 13.113C14.7994 12.9438 14.773 12.7686 14.6921 12.6164L13.8885 11.106C13.8351 11.0057 13.7596 10.9187 13.6679 10.8516C13.5761 10.7845 13.4704 10.739 13.3586 10.7185C13.2468 10.6979 13.1318 10.7029 13.0222 10.733C12.9126 10.7631 12.8112 10.8175 12.7255 10.8923L12.4869 11.1C11.9137 11.5999 11.5746 12.4216 11.8555 13.2538C12.3075 14.5702 13.0555 15.7654 14.0418 16.7474C15.411 18.1166 16.8021 18.6558 17.6162 18.8658C18.2718 19.0342 18.8918 18.8084 19.3291 18.4519L19.7754 18.0879C19.8695 18.0112 19.9437 17.9129 19.9917 17.8014C20.0398 17.6898 20.0602 17.5684 20.0513 17.4473C20.0424 17.3262 20.0044 17.209 19.9406 17.1057C19.8768 17.0024 19.7891 16.9161 19.6848 16.8539L18.4175 16.0987C18.2922 16.0239 18.1479 15.987 18.0021 15.9925C17.8563 15.998 17.7152 16.0457 17.5959 16.1296H17.5966Z" fill="white"/>
</svg>
