<svg width="141" height="37" viewBox="0 0 141 37" fill="none" xmlns="http://www.w3.org/2000/svg">
<rect width="141" height="37" rx="5" fill="#0073DC"/>
<rect width="42" height="37" rx="5" fill="#0649AD"/>
<path fill-rule="evenodd" clip-rule="evenodd" d="M19.2672 18.5077H16V15.0077H19.2672V13.25C19.2672 10.3505 21.6177 8 24.5171 8H26.2671V11.5H24.5171C23.5507 11.5 22.7671 12.2835 22.7671 13.25V15.0077H26.2364V18.5077H22.7671V29H19.2672V18.5077Z" fill="white"/>
<path d="M60.2274 24H58.9674V14.004H64.5534V15.11H60.2274V18.652H64.2874V19.758H60.2274V24ZM68.9011 16.37C69.8158 16.37 70.4925 16.5707 70.9311 16.972C71.3698 17.3733 71.5891 18.0127 71.5891 18.89V24H70.6931L70.4551 22.936H70.3991C70.0725 23.3467 69.7271 23.65 69.3631 23.846C69.0085 24.042 68.5138 24.14 67.8791 24.14C67.1978 24.14 66.6331 23.9627 66.1851 23.608C65.7371 23.244 65.5131 22.6793 65.5131 21.914C65.5131 21.1673 65.8071 20.5933 66.3951 20.192C66.9831 19.7813 67.8885 19.5573 69.1111 19.52L70.3851 19.478V19.03C70.3851 18.4047 70.2498 17.9707 69.9791 17.728C69.7085 17.4853 69.3258 17.364 68.8311 17.364C68.4391 17.364 68.0658 17.4247 67.7111 17.546C67.3565 17.658 67.0251 17.7887 66.7171 17.938L66.3391 17.014C66.6658 16.8367 67.0531 16.6873 67.5011 16.566C67.9491 16.4353 68.4158 16.37 68.9011 16.37ZM70.3711 20.332L69.2651 20.374C68.3318 20.4113 67.6831 20.5607 67.3191 20.822C66.9645 21.0833 66.7871 21.452 66.7871 21.928C66.7871 22.348 66.9131 22.656 67.1651 22.852C67.4265 23.048 67.7578 23.146 68.1591 23.146C68.7938 23.146 69.3211 22.9733 69.7411 22.628C70.1611 22.2733 70.3711 21.732 70.3711 21.004V20.332ZM76.9168 24.14C76.2541 24.14 75.6615 24.0047 75.1388 23.734C74.6255 23.4633 74.2195 23.0433 73.9208 22.474C73.6315 21.9047 73.4868 21.1767 73.4868 20.29C73.4868 19.366 73.6408 18.6147 73.9488 18.036C74.2568 17.4573 74.6721 17.0327 75.1948 16.762C75.7268 16.4913 76.3288 16.356 77.0008 16.356C77.3835 16.356 77.7521 16.398 78.1068 16.482C78.4615 16.5567 78.7508 16.65 78.9748 16.762L78.5968 17.784C78.3728 17.7 78.1115 17.6207 77.8128 17.546C77.5141 17.4713 77.2341 17.434 76.9728 17.434C75.4981 17.434 74.7608 18.3813 74.7608 20.276C74.7608 21.1813 74.9381 21.8767 75.2928 22.362C75.6568 22.838 76.1935 23.076 76.9028 23.076C77.3135 23.076 77.6728 23.034 77.9808 22.95C78.2981 22.866 78.5875 22.7633 78.8488 22.642V23.734C78.5968 23.8647 78.3168 23.9627 78.0088 24.028C77.7101 24.1027 77.3461 24.14 76.9168 24.14ZM83.5314 16.356C84.1754 16.356 84.726 16.496 85.1834 16.776C85.65 17.056 86.0047 17.4527 86.2474 17.966C86.4994 18.47 86.6254 19.0627 86.6254 19.744V20.486H81.4874C81.506 21.3353 81.7207 21.984 82.1314 22.432C82.5514 22.8707 83.1347 23.09 83.8814 23.09C84.3574 23.09 84.7774 23.048 85.1414 22.964C85.5147 22.8707 85.8974 22.74 86.2894 22.572V23.65C85.9067 23.818 85.5287 23.9393 85.1554 24.014C84.782 24.098 84.3387 24.14 83.8254 24.14C83.116 24.14 82.486 23.9953 81.9354 23.706C81.394 23.4167 80.9694 22.9873 80.6614 22.418C80.3627 21.8393 80.2134 21.1347 80.2134 20.304C80.2134 19.4827 80.3487 18.778 80.6194 18.19C80.8994 17.602 81.2867 17.1493 81.7814 16.832C82.2854 16.5147 82.8687 16.356 83.5314 16.356ZM83.5174 17.364C82.9294 17.364 82.4627 17.5553 82.1174 17.938C81.7814 18.3113 81.5807 18.834 81.5154 19.506H85.3374C85.328 18.8713 85.1787 18.358 84.8894 17.966C84.6 17.5647 84.1427 17.364 83.5174 17.364ZM89.7677 13.36V15.95C89.7677 16.2673 89.7584 16.566 89.7397 16.846C89.7304 17.1167 89.7164 17.3313 89.6977 17.49H89.7677C89.9824 17.1727 90.2764 16.9067 90.6497 16.692C91.023 16.4773 91.5037 16.37 92.0917 16.37C93.025 16.37 93.7717 16.6967 94.3317 17.35C94.901 17.994 95.1857 18.96 95.1857 20.248C95.1857 21.536 94.901 22.5067 94.3317 23.16C93.7624 23.8133 93.0157 24.14 92.0917 24.14C91.5037 24.14 91.023 24.0327 90.6497 23.818C90.2764 23.6033 89.9824 23.3467 89.7677 23.048H89.6697L89.4177 24H88.5357V13.36H89.7677ZM91.8817 17.392C91.0884 17.392 90.5377 17.6207 90.2297 18.078C89.9217 18.5353 89.7677 19.2447 89.7677 20.206V20.262C89.7677 21.186 89.917 21.8953 90.2157 22.39C90.5237 22.8753 91.0884 23.118 91.9097 23.118C92.5817 23.118 93.081 22.8707 93.4077 22.376C93.7437 21.8813 93.9117 21.1673 93.9117 20.234C93.9117 18.3393 93.235 17.392 91.8817 17.392ZM103.673 20.234C103.673 21.4753 103.356 22.4367 102.721 23.118C102.096 23.7993 101.246 24.14 100.173 24.14C99.5103 24.14 98.9177 23.9907 98.395 23.692C97.8817 23.384 97.4757 22.9407 97.177 22.362C96.8783 21.774 96.729 21.0647 96.729 20.234C96.729 18.9927 97.0417 18.036 97.667 17.364C98.2923 16.692 99.1417 16.356 100.215 16.356C100.896 16.356 101.494 16.51 102.007 16.818C102.53 17.1167 102.936 17.5553 103.225 18.134C103.524 18.7033 103.673 19.4033 103.673 20.234ZM98.003 20.234C98.003 21.1207 98.1757 21.8253 98.521 22.348C98.8757 22.8613 99.4357 23.118 100.201 23.118C100.957 23.118 101.512 22.8613 101.867 22.348C102.222 21.8253 102.399 21.1207 102.399 20.234C102.399 19.3473 102.222 18.652 101.867 18.148C101.512 17.644 100.952 17.392 100.187 17.392C99.4217 17.392 98.8663 17.644 98.521 18.148C98.1757 18.652 98.003 19.3473 98.003 20.234ZM112.15 20.234C112.15 21.4753 111.832 22.4367 111.198 23.118C110.572 23.7993 109.723 24.14 108.65 24.14C107.987 24.14 107.394 23.9907 106.872 23.692C106.358 23.384 105.952 22.9407 105.654 22.362C105.355 21.774 105.206 21.0647 105.206 20.234C105.206 18.9927 105.518 18.036 106.144 17.364C106.769 16.692 107.618 16.356 108.692 16.356C109.373 16.356 109.97 16.51 110.484 16.818C111.006 17.1167 111.412 17.5553 111.702 18.134C112 18.7033 112.15 19.4033 112.15 20.234ZM106.48 20.234C106.48 21.1207 106.652 21.8253 106.998 22.348C107.352 22.8613 107.912 23.118 108.678 23.118C109.434 23.118 109.989 22.8613 110.344 22.348C110.698 21.8253 110.876 21.1207 110.876 20.234C110.876 19.3473 110.698 18.652 110.344 18.148C109.989 17.644 109.429 17.392 108.664 17.392C107.898 17.392 107.343 17.644 106.998 18.148C106.652 18.652 106.48 19.3473 106.48 20.234ZM115.32 13.36V18.918C115.32 19.0673 115.311 19.2633 115.292 19.506C115.283 19.7487 115.273 19.9587 115.264 20.136H115.32C115.376 20.0613 115.46 19.954 115.572 19.814C115.684 19.674 115.796 19.534 115.908 19.394C116.029 19.2447 116.132 19.1233 116.216 19.03L118.61 16.496H120.052L117.014 19.702L120.262 24H118.778L116.174 20.5L115.32 21.242V24H114.102V13.36H115.32Z" fill="white"/>
</svg>
