<svg width="141" height="37" viewBox="0 0 141 37" fill="none" xmlns="http://www.w3.org/2000/svg">
<rect width="141" height="37" rx="5" fill="#E96C6C"/>
<path d="M63.3761 18.722H66.8341V23.622C66.2928 23.7993 65.7468 23.93 65.1961 24.014C64.6455 24.098 64.0201 24.14 63.3201 24.14C62.2841 24.14 61.4115 23.9347 60.7021 23.524C59.9928 23.104 59.4515 22.5113 59.0781 21.746C58.7141 20.9713 58.5321 20.0567 58.5321 19.002C58.5321 17.9567 58.7375 17.0513 59.1481 16.286C59.5588 15.5207 60.1468 14.928 60.9121 14.508C61.6868 14.0787 62.6201 13.864 63.7121 13.864C64.2721 13.864 64.7995 13.9153 65.2941 14.018C65.7981 14.1207 66.2648 14.2653 66.6941 14.452L66.2181 15.544C65.8635 15.3853 65.4621 15.25 65.0141 15.138C64.5755 15.026 64.1181 14.97 63.6421 14.97C62.4475 14.97 61.5141 15.3293 60.8421 16.048C60.1795 16.7667 59.8481 17.7513 59.8481 19.002C59.8481 19.7953 59.9741 20.5 60.2261 21.116C60.4875 21.7227 60.8935 22.1987 61.4441 22.544C61.9948 22.88 62.7181 23.048 63.6141 23.048C64.0528 23.048 64.4261 23.0247 64.7341 22.978C65.0421 22.9313 65.3221 22.8753 65.5741 22.81V19.842H63.3761V18.722ZM75.5777 20.234C75.5777 21.4753 75.2603 22.4367 74.6257 23.118C74.0003 23.7993 73.151 24.14 72.0777 24.14C71.415 24.14 70.8223 23.9907 70.2997 23.692C69.7863 23.384 69.3803 22.9407 69.0817 22.362C68.783 21.774 68.6337 21.0647 68.6337 20.234C68.6337 18.9927 68.9463 18.036 69.5717 17.364C70.197 16.692 71.0463 16.356 72.1197 16.356C72.801 16.356 73.3983 16.51 73.9117 16.818C74.4343 17.1167 74.8403 17.5553 75.1297 18.134C75.4283 18.7033 75.5777 19.4033 75.5777 20.234ZM69.9077 20.234C69.9077 21.1207 70.0803 21.8253 70.4257 22.348C70.7803 22.8613 71.3403 23.118 72.1057 23.118C72.8617 23.118 73.417 22.8613 73.7717 22.348C74.1263 21.8253 74.3037 21.1207 74.3037 20.234C74.3037 19.3473 74.1263 18.652 73.7717 18.148C73.417 17.644 72.857 17.392 72.0917 17.392C71.3263 17.392 70.771 17.644 70.4257 18.148C70.0803 18.652 69.9077 19.3473 69.9077 20.234ZM84.0542 20.234C84.0542 21.4753 83.7369 22.4367 83.1022 23.118C82.4769 23.7993 81.6276 24.14 80.5542 24.14C79.8916 24.14 79.2989 23.9907 78.7762 23.692C78.2629 23.384 77.8569 22.9407 77.5582 22.362C77.2596 21.774 77.1102 21.0647 77.1102 20.234C77.1102 18.9927 77.4229 18.036 78.0482 17.364C78.6736 16.692 79.5229 16.356 80.5962 16.356C81.2776 16.356 81.8749 16.51 82.3882 16.818C82.9109 17.1167 83.3169 17.5553 83.6062 18.134C83.9049 18.7033 84.0542 19.4033 84.0542 20.234ZM78.3842 20.234C78.3842 21.1207 78.5569 21.8253 78.9022 22.348C79.2569 22.8613 79.8169 23.118 80.5822 23.118C81.3382 23.118 81.8936 22.8613 82.2482 22.348C82.6029 21.8253 82.7802 21.1207 82.7802 20.234C82.7802 19.3473 82.6029 18.652 82.2482 18.148C81.8936 17.644 81.3336 17.392 80.5682 17.392C79.8029 17.392 79.2476 17.644 78.9022 18.148C78.5569 18.652 78.3842 19.3473 78.3842 20.234ZM88.6668 16.356C89.1615 16.356 89.6048 16.4493 89.9968 16.636C90.3981 16.8227 90.7388 17.1073 91.0188 17.49H91.0888L91.2568 16.496H92.2368V24.126C92.2368 25.1993 91.9615 26.0067 91.4108 26.548C90.8695 27.0893 90.0248 27.36 88.8768 27.36C87.7755 27.36 86.8748 27.2013 86.1748 26.884V25.75C86.9121 26.142 87.8361 26.338 88.9468 26.338C89.5908 26.338 90.0948 26.1467 90.4588 25.764C90.8321 25.3907 91.0188 24.8773 91.0188 24.224V23.93C91.0188 23.818 91.0235 23.6593 91.0328 23.454C91.0421 23.2393 91.0515 23.09 91.0608 23.006H91.0048C90.5008 23.762 89.7261 24.14 88.6808 24.14C87.7101 24.14 86.9495 23.7993 86.3988 23.118C85.8575 22.4367 85.5868 21.4847 85.5868 20.262C85.5868 19.0673 85.8575 18.12 86.3988 17.42C86.9495 16.7107 87.7055 16.356 88.6668 16.356ZM88.8348 17.392C88.2095 17.392 87.7241 17.644 87.3788 18.148C87.0335 18.6427 86.8608 19.352 86.8608 20.276C86.8608 21.2 87.0288 21.9093 87.3648 22.404C87.7101 22.8893 88.2095 23.132 88.8628 23.132C89.6188 23.132 90.1695 22.9313 90.5148 22.53C90.8601 22.1193 91.0328 21.4613 91.0328 20.556V20.262C91.0328 19.2353 90.8555 18.5027 90.5008 18.064C90.1461 17.616 89.5908 17.392 88.8348 17.392ZM95.8521 24H94.6201V13.36H95.8521V24ZM101.127 16.356C101.771 16.356 102.322 16.496 102.779 16.776C103.246 17.056 103.601 17.4527 103.843 17.966C104.095 18.47 104.221 19.0627 104.221 19.744V20.486H99.0835C99.1021 21.3353 99.3168 21.984 99.7275 22.432C100.147 22.8707 100.731 23.09 101.477 23.09C101.953 23.09 102.373 23.048 102.737 22.964C103.111 22.8707 103.493 22.74 103.885 22.572V23.65C103.503 23.818 103.125 23.9393 102.751 24.014C102.378 24.098 101.935 24.14 101.421 24.14C100.712 24.14 100.082 23.9953 99.5315 23.706C98.9901 23.4167 98.5655 22.9873 98.2575 22.418C97.9588 21.8393 97.8095 21.1347 97.8095 20.304C97.8095 19.4827 97.9448 18.778 98.2155 18.19C98.4955 17.602 98.8828 17.1493 99.3775 16.832C99.8815 16.5147 100.465 16.356 101.127 16.356ZM101.113 17.364C100.525 17.364 100.059 17.5553 99.7135 17.938C99.3775 18.3113 99.1768 18.834 99.1115 19.506H102.933C102.924 18.8713 102.775 18.358 102.485 17.966C102.196 17.5647 101.739 17.364 101.113 17.364Z" fill="white"/>
<rect width="40" height="37" rx="5" fill="#DE3030"/>
<path fill-rule="evenodd" clip-rule="evenodd" d="M20 11C18.6583 11.0004 17.345 11.3863 16.2164 12.1118C15.0878 12.8374 14.1915 13.872 13.6342 15.0925C13.0769 16.3129 12.8821 17.6679 13.073 18.9959C13.2639 20.3239 13.8324 21.5692 14.7109 22.5833C15.5894 23.5974 16.7408 24.3377 18.028 24.716C19.3153 25.0943 20.6841 25.0947 21.9716 24.7171C23.2591 24.3396 24.4109 23.6 25.29 22.5864C26.1691 21.5728 26.7383 20.3279 26.93 19H21C20.7348 19 20.4804 18.8947 20.2929 18.7071C20.1054 18.5196 20 18.2652 20 18C20 17.7348 20.1054 17.4804 20.2929 17.2929C20.4804 17.1054 20.7348 17 21 17H28C28.2652 17 28.5196 17.1054 28.7071 17.2929C28.8947 17.4804 29 17.7348 29 18C28.9998 20.0414 28.3056 22.0221 27.0313 23.617C25.7571 25.2118 23.9785 26.3261 21.9875 26.7769C19.9964 27.2277 17.9113 26.9882 16.0744 26.0978C14.2374 25.2074 12.7577 23.7189 11.8782 21.8767C10.9986 20.0345 10.7715 17.948 11.2341 15.9597C11.6967 13.9714 12.8215 12.1994 14.4239 10.9346C16.0263 9.66981 18.011 8.98735 20.0524 8.99924C22.0938 9.01112 24.0705 9.71665 25.658 11C25.8642 11.1668 25.9957 11.4087 26.0236 11.6725C26.0514 11.9363 25.9733 12.2003 25.8065 12.4065C25.6397 12.6127 25.3978 12.7442 25.134 12.7721C24.8702 12.7999 24.6062 12.7218 24.4 12.555C23.1557 11.5463 21.6018 10.9971 20 11V11Z" fill="white"/>
</svg>
