<svg width="72" height="72" viewBox="0 0 72 72" fill="none" xmlns="http://www.w3.org/2000/svg">
<circle cx="36" cy="36" r="36" fill="#0961B1"/>
<path fill-rule="evenodd" clip-rule="evenodd" d="M36 10.045C21.6728 10.045 10.0449 21.6728 10.0449 36C10.0449 50.3272 21.6728 61.9551 36 61.9551C50.3272 61.9551 61.955 50.3272 61.955 36C61.955 21.6728 50.3272 10.045 36 10.045ZM23.2042 52.2998C24.3203 49.9639 31.1205 47.6798 36.0001 47.6798C40.8796 47.6798 47.7058 49.9639 48.7959 52.2998C45.266 55.103 40.8277 56.7641 36.0001 56.7641C31.1724 56.7641 26.7341 55.103 23.2042 52.2998ZM36 42.4888C39.7894 42.4888 48.7958 44.0201 52.5074 48.5363C55.1548 45.0584 56.764 40.7239 56.764 36C56.764 24.5539 47.4462 15.236 36 15.236C24.5538 15.236 15.2359 24.5539 15.2359 36C15.2359 40.7239 16.8451 45.0584 19.4926 48.5363C23.2041 44.0201 32.2105 42.4888 36 42.4888ZM36 20.427C30.9647 20.427 26.9157 24.476 26.9157 29.5113C26.9157 34.5466 30.9647 38.5955 36 38.5955C41.0353 38.5955 45.0842 34.5466 45.0842 29.5113C45.0842 24.476 41.0353 20.427 36 20.427ZM32.1067 29.5113C32.1067 31.6655 33.8457 33.4045 36 33.4045C38.1542 33.4045 39.8932 31.6655 39.8932 29.5113C39.8932 27.357 38.1542 25.618 36 25.618C33.8457 25.618 32.1067 27.357 32.1067 29.5113Z" fill="#F2F2F2"/>
</svg>
